<?xml version="1.0" encoding="utf-8"?>
<!-- Generator: Adobe Illustrator 22.1.0, SVG Export Plug-In . SVG Version: 6.00 Build 0)  -->
<svg version="1.1" id="Layer_1" xmlns="http://www.w3.org/2000/svg" xmlns:xlink="http://www.w3.org/1999/xlink" x="0px" y="0px"
	 viewBox="0 0 59 200" style="enable-background:new 0 0 59 200;" xml:space="preserve">
<style type="text/css">
	.st0{fill:#A50E37;}
</style>
<g>
	<path class="st0" d="M37.4,50.4c0-8.8,0-48.5,0-48.5h-6.5H27h-6.5c0,0,0,39.7,0,48.5S4,69.8,4,82.4s0,103,0,106.2
		c0,3.2,2.1,8.5,6.9,8.5c3.3,0,11.3,0,16.1,0c2.3,0,3.9,0,3.9,0c4.8,0,12.9,0,16.1,0c4.8,0,6.9-5.3,6.9-8.5c0-3.2,0-93.7,0-106.2
		C53.9,69.8,37.4,59.2,37.4,50.4z M24.1,64.6c-1.1,1.5-2.2,3.3-3.6,5.4s-2.6,4.6-3.8,7.3c-0.5,1.4-1,2.8-1.4,4.3
		c0,1.5-0.5,2.7-0.3,4.6c0.1,3.6,0.3,7.3,0.4,11.2c0.3,7.8,0.3,16,0.4,24.3c0,16.6-0.5,33.1-1.3,45.5c-0.3,6.2-0.9,11.4-1.1,15
		c-0.3,3.6-0.6,5.7-0.6,5.7s-0.3-2.1-0.6-5.7c-0.3-3.6-0.8-8.8-1.1-15c-0.8-12.4-1.3-29-1.3-45.5c0.1-8.3,0.1-16.6,0.4-24.3
		c0.2-3.9,0.3-7.6,0.4-11.2c-0.1-1.6,0.5-3.9,0.9-5.7c0.7-1.7,1.5-3.2,2.2-4.7c0.9-1.4,1.7-2.6,2.5-3.9c0.9-1.1,1.8-2.2,2.6-3.2
		c1.7-1.9,3.2-3.6,4.5-4.9c2.6-2.6,4.3-3.8,4.3-3.8S26.2,61.7,24.1,64.6z"/>
</g>
</svg>
